<svg xmlns="http://www.w3.org/2000/svg" width="1280" height="720" viewBox="0 0 1280 720" aria-labelledby="screen-title-03"><title id="screen-title-03">Signup · missing fields</title><defs><linearGradient id="burgundy" x1="0" y1="0" x2="0" y2="1"><stop offset="0%" stop-color="#A82234"/><stop offset="100%" stop-color="#73121F"/></linearGradient></defs><rect x="0" y="0" width="1280" height="720" fill="#FFFFFF" stroke="none" stroke-width="2" rx="0"/><text x="640" y="100" fill="#000000" font-family="Times New Roman, Times New Roman, serif" font-size="58" font-weight="normal" text-anchor="middle"><tspan x="640" dy="0">WELCOME</tspan></text><g transform="translate(427 130) scale(.67)" fill="none" stroke="black" stroke-width="2.5"><path d="M 316 88 C 291 22 233 26 206 63 C 164 119 82 92 71 55 C 61 19 102 6 115 29 C 129 53 97 49 105 34 M 316 88 C 275 49 232 61 190 78 C 149 95 122 80 150 54 C 177 31 239 36 259 65 C 284 99 248 104 237 88 M 316 88 C 277 18 219 18 171 44 C 120 70 66 116 21 75 C -18 39 7 -10 37 0 C 69 10 45 35 42 20 M 316 88 C 302 52 228 61 176 30 C 118 -5 138 48 230 64"/><path d="M 316 88 C 291 22 233 26 206 63 C 164 119 82 92 71 55 C 61 19 102 6 115 29 C 129 53 97 49 105 34 M 316 88 C 275 49 232 61 190 78 C 149 95 122 80 150 54 C 177 31 239 36 259 65 C 284 99 248 104 237 88 M 316 88 C 277 18 219 18 171 44 C 120 70 66 116 21 75 C -18 39 7 -10 37 0 C 69 10 45 35 42 20 M 316 88 C 302 52 228 61 176 30 C 118 -5 138 48 230 64" transform="translate(648 0) scale(-1 1)"/></g><text x="640" y="238" fill="#000000" font-family="Georgia, Times New Roman, serif" font-size="28" font-weight="normal" text-anchor="middle"><tspan x="640" dy="0">SIGN UP</tspan></text><text x="447" y="277" fill="#555555" font-family="Georgia, Times New Roman, serif" font-size="18" font-weight="normal" text-anchor="start"><tspan x="447" dy="0">Name</tspan></text><rect x="447" y="287" width="386" height="46" fill="#FFFFFF" stroke="#000000" stroke-width="2" rx="4"/><text x="463" y="317" fill="#555555" font-family="Georgia, Times New Roman, serif" font-size="21" font-weight="normal" text-anchor="start"><tspan x="463" dy="0">Name</tspan></text><text x="447" y="361" fill="#555555" font-family="Georgia, Times New Roman, serif" font-size="18" font-weight="normal" text-anchor="start"><tspan x="447" dy="0">Password</tspan></text><rect x="447" y="370" width="386" height="46" fill="#FFFFFF" stroke="#000000" stroke-width="2" rx="4"/><text x="463" y="400" fill="#555555" font-family="Georgia, Times New Roman, serif" font-size="21" font-weight="normal" text-anchor="start"><tspan x="463" dy="0">Password</tspan></text><text x="804" y="400" fill="#555555" font-family="Georgia, Times New Roman, serif" font-size="16" font-weight="normal" text-anchor="end"><tspan x="804" dy="0">Show</tspan></text><text x="640" y="449" fill="#B30000" font-family="Georgia, Times New Roman, serif" font-size="17" font-weight="normal" text-anchor="middle"><tspan x="640" dy="0">Please enter your name and password.</tspan></text><g data-target="05" role="button" tabindex="0" aria-label="SIGN UP" class="hotspot"><rect x="523" y="477" width="234" height="54" fill="#FFFFFF" stroke="#000000" stroke-width="2" rx="4"/><text x="640" y="512" fill="#000000" font-family="Georgia, Times New Roman, serif" font-size="24" font-weight="normal" text-anchor="middle"><tspan x="640" dy="0">SIGN UP</tspan></text></g><g data-target="01" role="button" tabindex="0" aria-label="BACK" class="hotspot"><rect x="573" y="552" width="134" height="54" fill="#FFFFFF" stroke="#000000" stroke-width="2" rx="4"/><text x="640" y="587" fill="#000000" font-family="Georgia, Times New Roman, serif" font-size="24" font-weight="normal" text-anchor="middle"><tspan x="640" dy="0">BACK</tspan></text></g><text x="640" y="690" fill="#555555" font-family="Georgia, Times New Roman, serif" font-size="17" font-weight="normal" text-anchor="middle"><tspan x="640" dy="0">Design sample only — no credentials are entered or stored in this preview.</tspan></text></svg>